<svg xmlns="http://www.w3.org/2000/svg" width="100%" height="100%" viewBox="0 0 20 20">
  <path fill-rule="evenodd" d="M9.73176616,1.30353437 C10.0640025,1.30353437 10.3333333,1.57286517 10.3333333,1.90510155 L10.3333333,1.90510155 L10.3332505,2.78100503 C14.7811337,2.95304901 18.3333333,6.55383767 18.3333333,10.9706189 C18.3333333,15.4971711 14.6023729,19.1666667 10,19.1666667 C5.39762708,19.1666667 1.66666667,15.4971711 1.66666667,10.9706189 C1.66666667,10.530044 2.02980567,10.1728875 2.47776033,10.1728875 C2.925715,10.1728875 3.288854,10.530044 3.288854,10.9706189 C3.288854,14.6160212 6.29353641,17.5712037 10,17.5712037 C13.7064636,17.5712037 16.711146,14.6160212 16.711146,10.9706189 C16.711146,7.43526153 13.885132,4.54908118 10.3336826,4.37805083 L10.3333333,5.23177107 C10.3333333,5.36961073 10.2859966,5.50326955 10.1992433,5.61038459 C9.99014081,5.86856508 9.61133313,5.90835067 9.35315264,5.6992482 L9.35315264,5.6992482 L7.29941996,4.03591344 C7.26677746,4.00947601 7.23699378,3.97969233 7.21055635,3.94704983 C7.00145388,3.68886934 7.04123947,3.31006165 7.29941996,3.10095918 L7.29941996,3.10095918 L9.35315264,1.43762442 C9.46026767,1.35087108 9.59392649,1.30353437 9.73176616,1.30353437 Z M8.89979639,8.29084162 L12.5720651,10.4168919 C13.1479067,10.7502739 13.143552,11.2933141 12.5720651,11.624175 L8.89979639,13.7502253 C8.32395475,14.0836073 7.85714286,13.8195748 7.85714286,13.1465837 L7.85714286,8.89448314 C7.85714286,8.22771913 8.32830945,7.95998076 8.89979639,8.29084162 Z"/>
</svg>
