<svg xmlns="http://www.w3.org/2000/svg" width="100%" height="100%" viewBox="0 0 36 44">
  <path fill="#4F63FF" d="M135.343146,308 C136.934445,308 138.460568,308.632141 139.585786,309.757359 L139.585786,309.757359 L149.242641,319.414214 C150.367859,320.539432 151,322.065555 151,323.656854 L151,323.656854 L151,344 C151,348.418278 147.418278,352 143,352 L143,352 L123,352 C118.581722,352 115,348.418278 115,344 L115,344 L115,316 C115,311.581722 118.581722,308 123,308 L123,308 Z M135.343146,310 L123,310 C119.686292,310 117,312.686292 117,316 L117,316 L117,344 C117,347.313708 119.686292,350 123,350 L123,350 L143,350 C146.313708,350 149,347.313708 149,344 L149,344 L149,323.656854 C149,322.595988 148.578573,321.578573 147.828427,320.828427 L147.828427,320.828427 L138.171573,311.171573 C137.421427,310.421427 136.404012,310 135.343146,310 L135.343146,310 Z M138.99147,323 C140.09805,323 141,323.895719 141,325.000645 L141,335.53861 L140.999792,335.538554 C140.979121,337.45379 139.420129,339 137.5,339 C135.567003,339 134,337.432997 134,335.5 C134,333.567003 135.567003,332 137.5,332 C138.036799,332 138.545372,332.120846 139,332.336816 L139,327 L131,327 L131,335.584559 L130.999005,335.584269 C130.954252,337.478334 129.404828,339 127.5,339 C125.567003,339 124,337.432997 124,335.5 C124,333.567003 125.567003,332 127.5,332 C128.036799,332 128.545372,332.120846 129,332.336816 L129,325.00853 C129,323.90195 129.89925,323 131.00853,323 L138.99147,323 Z M127.5,334 C126.671573,334 126,334.671573 126,335.5 C126,336.328427 126.671573,337 127.5,337 C128.328427,337 129,336.328427 129,335.5 C129,334.671573 128.328427,334 127.5,334 Z M137.5,334 C136.671573,334 136,334.671573 136,335.5 C136,336.328427 136.671573,337 137.5,337 C138.328427,337 139,336.328427 139,335.5 C139,334.671573 138.328427,334 137.5,334 Z" transform="translate(-115 -308)"/>
</svg>
