<svg xmlns="http://www.w3.org/2000/svg" width="100%" height="100%" viewBox="0 0 20 20">
  <path d="M100,170.04528 C98.346,170.04528 97,171.385739 97,173.032931 C97,174.680122 98.346,176.020582 100,176.020582 C100.455,176.020582 100.903,176.041495 101.345,176.077347 L103.072,180.373589 L104.929,179.634643 L103.626,176.392046 C108.468,177.369008 112,180.014075 112,181 L114,181 L114,166.061745 L112.007,166 C111.695,166.975966 106.271,170.04528 100,170.04528 Z M112,168.691874 L112,177.88388 C109.341,175.753685 104.458,174.028814 100,174.028814 C99.449,174.028814 99,173.583654 99,173.032931 C99,172.484199 99.449,172.037047 100,172.037047 C104.383,172.037047 109.317,170.523304 112,168.691874 Z M117,172.037047 L117,176.020582 L115,176.020582 L115,172.037047 L117,172.037047 Z" transform="translate(-97 -164)"/>
</svg>
