<svg xmlns="http://www.w3.org/2000/svg" width="100%" height="100%" viewBox="0 0 24 24">
  <path fill-rule="evenodd" d="M6.43585865,1.04769108 L0.317498428,12.4103601 C0.212763186,12.6048684 0.285538634,12.8474532 0.480046941,12.9521884 C0.538330304,12.9835718 0.603491216,13 0.669686873,13 L6,13 L6,13 L6,20.810079 C6,20.9757644 6.13431458,21.110079 6.30000001,21.110079 C6.41036475,21.110079 6.51181745,21.0494819 6.56414135,20.9523089 L12.6825016,9.58963994 C12.7872368,9.39513163 12.7144614,9.1525468 12.5199531,9.04781156 C12.4616697,9.01642821 12.3965088,9 12.3303131,9 L7,9 L7,9 L7,1.18992104 C7,1.0242356 6.86568542,0.889921024 6.69999999,0.889921024 C6.58963525,0.889921024 6.48818255,0.95051812 6.43585865,1.04769108 Z" transform="translate(6 1)"/>
</svg>
