<svg xmlns="http://www.w3.org/2000/svg" width="100%" height="100%" viewBox="0 0 24 20">
  <path d="M165,194 C163.067,194 161.5,195.567 161.5,197.5 C161.5,199.433 163.067,201 165,201 C166.933,201 168.5,199.433 168.5,197.5 C168.5,195.567 166.933,194 165,194 Z M165,196 C165.827,196 166.5,196.673 166.5,197.5 C166.5,198.327 165.827,199 165,199 C164.173,199 163.5,198.327 163.5,197.5 C163.5,196.673 164.173,196 165,196 Z M157.5,197 C156.119,197 155,198.119 155,199.5 C155,200.881 156.119,202 157.5,202 C158.881,202 160,200.881 160,199.5 C160,198.119 158.881,197 157.5,197 Z M172.5,197 C171.119,197 170,198.119 170,199.5 C170,200.881 171.119,202 172.5,202 C173.881,202 175,200.881 175,199.5 C175,198.119 173.881,197 172.5,197 Z M157.5,198.722656 C157.929,198.722656 158.277344,199.071 158.277344,199.5 C158.277344,199.929 157.929,200.277344 157.5,200.277344 C157.071,200.277344 156.722656,199.929 156.722656,199.5 C156.722656,199.071 157.071,198.722656 157.5,198.722656 Z M172.5,198.722656 C172.929,198.722656 173.277344,199.071 173.277344,199.5 C173.277344,199.929 172.929,200.277344 172.5,200.277344 C172.071,200.277344 171.722656,199.929 171.722656,199.5 C171.722656,199.071 172.071,198.722656 172.5,198.722656 Z M165,203 C163.525268,203 161.12583,203.468267 159.554688,204.398438 C158.913534,204.155255 158.211253,204 157.5,204 C155.263,204 153,205.397641 153,206.931641 L153,210 L157.5,210 L158,210 L159,210 L172,210 L172.5,210 L177,210 L177,206.931641 C177,205.397641 174.737,204 172.5,204 C171.788747,204 171.086466,204.155255 170.445312,204.398438 C168.87417,203.468267 166.474732,203 165,203 Z M165,205 C167.134,205 169.622,205.961406 170,206.566406 L170,208 L160,208 L160,206.566406 C160.378,205.961406 162.866,205 165,205 Z M157.5,206 C157.697945,206 157.8767,206.033966 158.058594,206.0625 C158.021443,206.203432 158,206.349386 158,206.5 L158,208 L157.5,208 L155,208 L155,207.009766 C155.184,206.689766 156.198,206 157.5,206 Z M172.5,206 C173.802,206 174.816,206.689766 175,207.009766 L175,208 L172.5,208 L172,208 L172,206.5 C172,206.349386 171.978557,206.203432 171.941406,206.0625 C172.1233,206.033966 172.302055,206 172.5,206 Z" transform="translate(-153 -192)"/>
</svg>
