<svg xmlns="http://www.w3.org/2000/svg" width="100%" height="100%" viewBox="0 0 20 20">
  <path fill-rule="evenodd" d="M16.0407727,0.313323582 C16.5226753,-0.137606369 17.2649277,-0.0969895294 17.6986399,0.404043791 C18.1323522,0.905077017 18.0932862,1.67679566 17.6113837,2.12772552 L9.33757604,9.86976237 C9.15113771,10.0442181 8.84652132,10.0420284 8.66427747,9.87149754 C8.66427747,9.87149754 0.97443773,2.67589532 0.388616268,2.12772552 C-0.0932862454,1.67679557 -0.132352164,0.905076924 0.301360096,0.404043697 C0.735072355,-0.0969895294 1.47732478,-0.137606275 1.9592273,0.313323582 C2.54504876,0.86149348 8.99153234,6.909498 8.99153234,6.909498 L16.0407727,0.313323582 L16.0407727,0.313323582 L16.0407727,0.313323582 L16.0407727,0.313323582 L16.0407727,0.313323582 L16.0407727,0.313323582 L16.0407727,0.313323582 Z" transform="translate(1 5),rotate(90)" x="12" y="-5" />
</svg>
