<svg xmlns="http://www.w3.org/2000/svg" width="100%" height="100%" viewBox="0 0 20 20">
  <path d="M10,15a5,5,0,1,1,5-5A5,5,0,0,1,10,15Zm8.31-6.54a1.13,1.13,0,0,1-1-.73l-.53-1.29A1.1,1.1,0,0,1,17,5.22l.66-.66a.76.76,0,0,0,0-1.08l-1.1-1.09a.76.76,0,0,0-1.08,0L14.78,3a1.1,1.1,0,0,1-1.22.18l-1.29-.53a1.1,1.1,0,0,1-.73-1V.77A.78.78,0,0,0,10.77,0H9.23a.78.78,0,0,0-.77.77v.92a1.1,1.1,0,0,1-.74,1l-1.28.53A1.1,1.1,0,0,1,5.22,3l-.66-.65a.77.77,0,0,0-1.09,0L2.39,3.48a.76.76,0,0,0,0,1.08L3,5.22a1.1,1.1,0,0,1,.18,1.22L2.69,7.73a1.12,1.12,0,0,1-1,.73H.77A.78.78,0,0,0,0,9.23v1.54a.78.78,0,0,0,.77.77h.92a1.11,1.11,0,0,1,1,.74l.53,1.28A1.1,1.1,0,0,1,3,14.78l-.66.66a.79.79,0,0,0,0,1.09l1.09,1.09a.77.77,0,0,0,1.09,0L5.22,17a1.1,1.1,0,0,1,1.22-.18l1.28.53a1.12,1.12,0,0,1,.74,1v.92a.78.78,0,0,0,.77.77h1.54a.78.78,0,0,0,.77-.77v-.92a1.13,1.13,0,0,1,.73-1l1.29-.53a1.11,1.11,0,0,1,1.23.18l.65.66a.76.76,0,0,0,1.08,0l1.1-1.09a.77.77,0,0,0,0-1.09L17,14.78a1.1,1.1,0,0,1-.18-1.22l.53-1.28a1.12,1.12,0,0,1,1-.74h.92a.77.77,0,0,0,.77-.77V9.23a.78.78,0,0,0-.77-.77Z"/>
</svg>
