<svg xmlns="http://www.w3.org/2000/svg" width="100%" height="100%" viewBox="0 0 20 20">
  <path d="M280,148 C280.552285,148 281,148.447715 281,149 L281,149 L281,151 L283,151 C283.552285,151 284,151.447715 284,152 C284,152.552285 283.552285,153 283,153 L283,153 L281,153 L281,155 C281,155.552285 280.552285,156 280,156 C279.447715,156 279,155.552285 279,155 L279,155 L279,153 L277,153 C276.447715,153 276,152.552285 276,152 C276,151.447715 276.447715,151 277,151 L277,151 L279,151 L279,149 C279,148.447715 279.447715,148 280,148 Z M273,146 C274.248219,146 275.661681,146.209685 277.001414,146.580137 L277.000979,148.667602 C275.680033,148.253602 274.164407,148 273,148 C271.585953,148 269.653946,148.373999 268.181641,148.955078 C267.445488,149.245618 266.823038,149.591965 266.445312,149.90625 C266.105359,150.189107 266.016619,150.390798 266.00227,150.475972 L266,150.5 L266,151 L274,151 L274,153 L264,153 L264,150.5 C264,149.599384 264.537335,148.892231 265.166016,148.369141 C265.794696,147.84605 266.580246,147.438663 267.449219,147.095703 C269.187164,146.409783 271.255047,146 273,146 Z M273,136 C275.197294,136 277,137.802706 277,140 C277,142.197294 275.197294,144 273,144 C270.802706,144 269,142.197294 269,140 C269,137.802706 270.802706,136 273,136 Z M273,138 C271.883586,138 271,138.883586 271,140 C271,141.116414 271.883586,142 273,142 C274.116414,142 275,141.116414 275,140 C275,138.883586 274.116414,138 273,138 Z" transform="translate(-264 -136)"/>
</svg>
