<svg xmlns="http://www.w3.org/2000/svg" width="100%" height="100%" viewBox="0 0 20 20">
  <path fill-rule="evenodd" d="M392.007198,153.418912 C391.465037,154.740816 389.995887,155.35468 388.726166,154.790236 L388.695714,154.77656 C387.425993,154.211806 386.836363,152.682586 387.378823,151.360681 L388.536589,148.539084 C389.07875,147.217179 390.5479,146.603315 391.817621,147.168069 L391.848073,147.181435 C391.951071,147.227436 392.047801,147.281518 392.141544,147.33933 C392.181251,147.019499 392.208718,146.696871 392.208718,146.369891 C392.208718,142.231673 388.974856,138.864902 385,138.864902 C381.025144,138.864902 377.791282,142.231673 377.791282,146.369891 C377.791282,146.716141 377.821734,147.057419 377.866218,147.395588 C377.985338,147.314775 378.111325,147.241733 378.246567,147.181435 L378.277019,147.168069 C379.546739,146.603315 381.015889,147.217179 381.558051,148.539084 L382.715816,151.360681 C383.258276,152.682586 382.668646,154.211806 381.398925,154.77656 L381.368473,154.790236 C380.098753,155.35468 378.629603,154.740816 378.087441,153.418912 L376.831752,150.309808 C376.287799,149.088919 376,147.749919 376,146.369891 C376,141.203179 380.037252,137 385,137 C389.962748,137 394,141.203179 394,146.369891 C394,147.587673 393.775493,148.774372 393.348272,149.876529 L392.007198,153.418912" transform="translate(-375 -136)"/>
</svg>
