<?xml version="1.0" encoding="UTF-8"?>
<svg width="100%" height="100%" viewBox="0 0 20 20" version="1.1" xmlns="http://www.w3.org/2000/svg" xmlns:xlink="http://www.w3.org/1999/xlink">
    <title>icon-notifications</title>
    <g id="Messaging" stroke="none" stroke-width="1" fill="none" fill-rule="evenodd">
        <g transform="translate(-67.000000, -192.000000)" fill="#000000" fill-rule="nonzero" id="icons8-appointment_reminders">
            <g transform="translate(69.000000, 192.000000)">
                <path d="M8,0 C7.172,0 6.5,0.672 6.5,1.5 L6.5,2.1953125 C3.9131836,2.862095 2,5.2048001 2,8 L2,14 L0,16 L0,17 L6.269531,17 C6.09344145,17.3038851 6.00048082,17.6487829 6,18 C6,19.1045695 6.8954305,20 8,20 C9.1045695,20 10,19.1045695 10,18 C9.99892584,17.6486051 9.90528842,17.3036956 9.728516,17 L16,17 L16,16 L14,14 L14,8 C14,5.2048001 12.086816,2.862095 9.5,2.1953125 L9.5,1.5 C9.5,0.672 8.828,0 8,0 Z M8,4 C10.206,4 12,5.794 12,8 L12,14 L12,14.828125 L12.171875,15 L3.828125,15 L4,14.828125 L4,14 L4,8 C4,5.794 5.794,4 8,4 Z" id="Shape"></path>
            </g>
        </g>
    </g>
</svg>