<svg xmlns="http://www.w3.org/2000/svg" width="100%" height="100%" viewBox="0 0 20 20">
  <path fill-rule="evenodd" d="M77,222 C77.5522847,222 78,222.447715 78,223 L78,229 L84,229 C84.5522847,229 85,229.447715 85,230 C85,230.552285 84.5522847,231 84,231 L78,231 L78,237 C78,237.552285 77.5522847,238 77,238 C76.4477153,238 76,237.552285 76,237 L76,231 L70,231 C69.4477153,231 69,230.552285 69,230 C69,229.447715 69.4477153,229 70,229 L76,229 L76,223 C76,222.447715 76.4477153,222 77,222 Z" transform="translate(-67 -220)"/>
</svg>
