<?xml version="1.0" encoding="UTF-8"?>
<svg width="100%" height="100%" viewBox="0 0 20 20" fill="#000000" version="1.1" xmlns="http://www.w3.org/2000/svg" xmlns:xlink="http://www.w3.org/1999/xlink">
    <!-- Generator: Sketch 59.1 (86144) - https://sketch.com -->
    <title>icon-delete</title>
    <desc>Created with Sketch.</desc>
    <g id="Messaging" stroke="none" stroke-width="1"  fill-rule="evenodd">
        <g id="Messages" transform="translate(-319.000000, -169.000000)"  fill-rule="nonzero">
            <path d="M327,169 L326,170 L321,170 L321,172 L322,172 L322,187 C322,188.093063 322.906937,189 324,189 L332,189 L332,187 L324,187 L324,172 L334,172 L334,182 L336,182 L336,172 L337,172 L337,170 L332,170 L331,169 L327,169 Z M326,174 L326,185 L328,185 L328,174 L326,174 Z M336,182 L336,187 C336,188.104569 335.104569,189 334,189 L332,189 L332,187 L334,187 L334,182 L336,182 Z M332,174 L332,185 L330,185 L330,174 L332,174 Z" id="Shape"></path>
        </g>
    </g>
</svg>