<svg xmlns="http://www.w3.org/2000/svg" width="100%" height="100%" viewBox="0 0 36 44">
  <path fill="#222" d="M327.343146,308 C328.934445,308 330.460568,308.632141 331.585786,309.757359 L331.585786,309.757359 L341.242641,319.414214 C342.367859,320.539432 343,322.065555 343,323.656854 L343,323.656854 L343,344 C343,348.418278 339.418278,352 335,352 L335,352 L315,352 C310.581722,352 307,348.418278 307,344 L307,344 L307,316 C307,311.581722 310.581722,308 315,308 L315,308 Z M327.343146,310 L315,310 C311.686292,310 309,312.686292 309,316 L309,316 L309,344 C309,347.313708 311.686292,350 315,350 L315,350 L335,350 C338.313708,350 341,347.313708 341,344 L341,344 L341,323.656854 C341,322.595988 340.578573,321.578573 339.828427,320.828427 L339.828427,320.828427 L330.171573,311.171573 C329.421427,310.421427 328.404012,310 327.343146,310 L327.343146,310 Z M325,339 C325.552285,339 326,339.447715 326,340 L326,342 C326,342.552285 325.552285,343 325,343 C324.447715,343 324,342.552285 324,342 L324,340 C324,339.447715 324.447715,339 325,339 Z M325,333 C325.552285,333 326,333.447715 326,334 L326,336 C326,336.552285 325.552285,337 325,337 C324.447715,337 324,336.552285 324,336 L324,334 C324,333.447715 324.447715,333 325,333 Z M325,327 C325.552285,327 326,327.447715 326,328 L326,330 C326,330.552285 325.552285,331 325,331 C324.447715,331 324,330.552285 324,330 L324,328 C324,327.447715 324.447715,327 325,327 Z M325.964844,318 L326.265625,318.375 C326.265625,318.375 326.677322,318.889446 327.091797,319.558594 C327.506272,320.227742 328,320.990185 328,322 C328,323.64497 326.64497,325 325,325 C323.35503,325 322,323.64497 322,322 C322,321.001346 322.478609,320.237249 322.882812,319.568359 C323.260069,318.944063 323.637488,318.454078 323.686134,318.391522 L323.691406,318.384766 L323.990234,318 L325.964844,318 Z M324.986328,320.029297 C324.856896,320.208285 324.790559,320.281062 324.595703,320.603516 C324.260406,321.158376 324,321.893654 324,322 C324,322.56503 324.43497,323 325,323 C325.56503,323 326,322.56503 326,322 C326,321.904815 325.736103,321.16593 325.392578,320.611328 C325.189962,320.284215 325.11894,320.207881 324.986328,320.029297 Z" transform="translate(-307 -308)"/>
</svg>
