<svg xmlns="http://www.w3.org/2000/svg" width="100%" height="100%" viewBox="0 0 20 20">
  <path d="M77,165 C81.9705627,165 86,169.029437 86,174 C86,178.970563 81.9705627,183 77,183 C72.0294373,183 68,178.970563 68,174 C68,169.029437 72.0294373,165 77,165 Z M77,167 C73.1340068,167 70,170.134007 70,174 C70,177.865993 73.1340068,181 77,181 C80.8659932,181 84,177.865993 84,174 C84,170.134007 80.8659932,167 77,167 Z M77,172.85875 C77.5522847,172.85875 78,173.307098 78,173.854009 L78,177.577241 C78,178.087645 77.6172798,178.508313 77.1173326,178.565804 L77,178.5725 C76.4477153,178.5725 76,178.124152 76,177.577241 L76,173.854009 C76,173.343605 76.3827202,172.922937 76.8826674,172.865446 L77,172.85875 Z M77,169.5725 C77.5128358,169.5725 77.9355072,169.95522 77.9932723,170.455167 L78,170.5725 C78,171.085336 77.6172798,171.508007 77.1173326,171.565772 L77,171.5725 C76.4477153,171.5725 76,171.128635 76,170.5725 C76,170.059664 76.3827202,169.636993 76.8826674,169.579228 L77,169.5725 Z" transform="translate(-67 -164)"/>
</svg>
