<svg xmlns="http://www.w3.org/2000/svg" width="100%" height="100%" viewBox="0 0 20 20">
  <path d="M336,182 C336.552285,182 337,182.447715 337,183 C337,183.552285 336.552285,184 336,184 L320,184 C319.447715,184 319,183.552285 319,183 C319,182.447715 319.447715,182 320,182 L336,182 Z M328.707107,164.292893 L334.320312,169.906098 C334.734526,170.320312 334.734526,170.991885 334.320312,171.406098 C333.906098,171.820312 333.234526,171.820312 332.820312,171.406098 L329,167.585786 L329,177.656098 C329,178.208383 328.552285,178.656098 328,178.656098 C327.447715,178.656098 327,178.208383 327,177.656098 L327,167.585786 L323.179688,171.406098 C322.765474,171.820312 322.093901,171.820312 321.679687,171.406098 C321.297337,171.023747 321.267925,170.422108 321.591453,170.00602 L321.679688,169.906098 L321.679688,169.906098 L327.292893,164.292893 C327.683418,163.902369 328.316582,163.902369 328.707107,164.292893 Z M320,179 C320.552285,179 321,179.447715 321,180 L321,183 C321,183.552285 320.552285,184 320,184 C319.447715,184 319,183.552285 319,183 L319,180 C319,179.447715 319.447715,179 320,179 Z M336,179 C336.552285,179 337,179.447715 337,180 L337,183 C337,183.552285 336.552285,184 336,184 C335.447715,184 335,183.552285 335,183 L335,180 C335,179.447715 335.447715,179 336,179 Z" transform="translate(-318 -164)"/>
</svg>
