<?xml version="1.0" encoding="UTF-8"?>
<svg width="100%" height="100%" viewBox="0 0 20 20" version="1.1" xmlns="http://www.w3.org/2000/svg" xmlns:xlink="http://www.w3.org/1999/xlink">
    <!-- Generator: Sketch 59.1 (86144) - https://sketch.com -->
    <title>icon-check-circle</title>
    <desc>Created with Sketch.</desc>
    <g id="Messaging" stroke="none" stroke-width="1" fill="none" fill-rule="evenodd">
        <g id="Messages" transform="translate(-205.000000, -70.000000)" fill="#4F63FF" fill-rule="nonzero">
            <path d="M219,70 C226.731986,70 233,76.2680135 233,84 C233,91.7319865 226.731986,98 219,98 C211.268014,98 205,91.7319865 205,84 C205,76.2680135 211.268014,70 219,70 Z M219,71.5 C212.096441,71.5 206.5,77.0964406 206.5,84 C206.5,90.9035594 212.096441,96.5 219,96.5 C225.903559,96.5 231.5,90.9035594 231.5,84 C231.5,77.0964406 225.903559,71.5 219,71.5 Z M213.165685,83.3733771 C212.853266,83.0609576 212.346734,83.0609576 212.034315,83.3733771 C211.721895,83.6857965 211.721895,84.1923285 212.034315,84.5047479 L216.838221,89.3086542 C217.15064,89.6210736 217.657172,89.6210736 217.969592,89.3086542 L226.334045,80.944201 C226.646464,80.6317816 226.646464,80.1252496 226.334045,79.8128302 C226.021625,79.5004108 225.515093,79.5004108 225.202674,79.8128302 L217.403906,87.6115979 L213.165685,83.3733771 Z" id="icon-check-circle"></path>
        </g>
    </g>
</svg>