<svg xmlns="http://www.w3.org/2000/svg" width="100%" height="100%" viewBox="0 0 36 44">
  <path fill="#4F63FF" d="M183.343146,308 C184.934445,308 186.460568,308.632141 187.585786,309.757359 L187.585786,309.757359 L197.242641,319.414214 C198.367859,320.539432 199,322.065555 199,323.656854 L199,323.656854 L199,344 C199,348.418278 195.418278,352 191,352 L191,352 L171,352 C166.581722,352 163,348.418278 163,344 L163,344 L163,316 C163,311.581722 166.581722,308 171,308 L171,308 Z M183.343146,310 L171,310 C167.686292,310 165,312.686292 165,316 L165,316 L165,344 C165,347.313708 167.686292,350 171,350 L171,350 L191,350 C194.313708,350 197,347.313708 197,344 L197,344 L197,323.656854 C197,322.595988 196.578573,321.578573 195.828427,320.828427 L195.828427,320.828427 L186.171573,311.171573 C185.421427,310.421427 184.404012,310 183.343146,310 L183.343146,310 Z M177.497175,325.290678 L186.324118,331.027074 C187.150985,331.564433 187.151859,332.435096 186.324118,332.973023 L177.497175,338.709418 C176.670308,339.246777 176,338.877953 176,337.904858 L176,326.095239 C176,325.113534 176.669434,324.752752 177.497175,325.290678 Z" transform="translate(-163 -308)"/>
</svg>
