<svg xmlns="http://www.w3.org/2000/svg" width="100%" height="100%" viewBox="0 0 20 20">
  <path d="M362,164 C360.35499,164 359,165.35499 359,167 C359,167.190953 359.021791,167.377122 359.056641,167.558594 L351.921875,171.720703 C351.39854,171.277854 350.732077,171 350,171 C348.35499,171 347,172.35499 347,174 C347,175.64501 348.35499,177 350,177 C350.732077,177 351.39854,176.722146 351.921875,176.279297 L359.056641,180.439453 C359.021555,180.621514 359,180.808386 359,181 C359,182.64501 360.35499,184 362,184 C363.64501,184 365,182.64501 365,181 C365,179.35499 363.64501,178 362,178 C361.26748,178 360.601593,178.279328 360.078125,178.722656 L352.943359,174.558594 C352.978209,174.377122 353,174.190953 353,174 C353,173.809047 352.978209,173.622878 352.943359,173.441406 L360.078125,169.279297 C360.60146,169.722146 361.267923,170 362,170 C363.64501,170 365,168.64501 365,167 C365,165.35499 363.64501,164 362,164 Z M362,166 C362.564129,166 363,166.435871 363,167 C363,167.564129 362.564129,168 362,168 C361.435871,168 361,167.564129 361,167 C361,166.435871 361.435871,166 362,166 Z M350,173 C350.564129,173 351,173.435871 351,174 C351,174.564129 350.564129,175 350,175 C349.435871,175 349,174.564129 349,174 C349,173.435871 349.435871,173 350,173 Z M362,180 C362.564129,180 363,180.435871 363,181 C363,181.564129 362.564129,182 362,182 C361.435871,182 361,181.564129 361,181 C361,180.435871 361.435871,180 362,180 Z" transform="translate(-347 -164)"/>
</svg>
