<svg xmlns="http://www.w3.org/2000/svg" width="100%" height="100%" viewBox="0 0 36 44">
  <path fill="#222" d="M279.343146,308 C280.934445,308 282.460568,308.632141 283.585786,309.757359 L283.585786,309.757359 L293.242641,319.414214 C294.367859,320.539432 295,322.065555 295,323.656854 L295,323.656854 L295,344 C295,348.418278 291.418278,352 287,352 L287,352 L267,352 C262.581722,352 259,348.418278 259,344 L259,344 L259,316 C259,311.581722 262.581722,308 267,308 L267,308 Z M279.343146,310 L267,310 C263.686292,310 261,312.686292 261,316 L261,316 L261,344 C261,347.313708 263.686292,350 267,350 L267,350 L287,350 C290.313708,350 293,347.313708 293,344 L293,344 L293,323.656854 C293,322.595988 292.578573,321.578573 291.828427,320.828427 L291.828427,320.828427 L282.171573,311.171573 C281.421427,310.421427 280.404012,310 279.343146,310 L279.343146,310 Z M288,326 C288.552285,326 289,326.447715 289,327 L289,342 C289,342.512836 288.61396,342.935507 288.116621,342.993272 L288,343 L266,343 C265.447715,343 265,342.552285 265,342 L265,327 C265,326.447715 265.447715,326 266,326 L288,326 Z M287,338 L274,338 L274,341 L287,341 L287,338 Z M272,338 L267,338 L267,341 L272,341 L272,338 Z M287,333 L274,333 L274,336 L287,336 L287,333 Z M272,333 L267,333 L267,336 L272,336 L272,333 Z M287,328 L274,328 L274,331 L287,331 L287,328 Z M272,328 L267,328 L267,331 L272,331 L272,328 Z" transform="translate(-259 -308)"/>
</svg>
