<svg xmlns="http://www.w3.org/2000/svg" width="100%" height="100%" viewBox="0 0 10 10">
  <path d="M119.12132,221.464466 C119.511845,221.073942 120.14501,221.073942 120.535534,221.464466 C120.926058,221.85499 120.926058,222.488155 120.535534,222.87868 L118.414214,225 L120.535534,227.12132 C120.926058,227.511845 120.926058,228.14501 120.535534,228.535534 C120.14501,228.926058 119.511845,228.926058 119.12132,228.535534 L117,226.414214 L114.87868,228.535534 C114.488155,228.926058 113.85499,228.926058 113.464466,228.535534 C113.073942,228.14501 113.073942,227.511845 113.464466,227.12132 L115.585786,225 L113.464466,222.87868 C113.073942,222.488155 113.073942,221.85499 113.464466,221.464466 C113.85499,221.073942 114.488155,221.073942 114.87868,221.464466 L117,223.585786 L119.12132,221.464466 Z" transform="translate(-112 -220)"/>
</svg>
