<?xml version="1.0" encoding="UTF-8"?>
<svg width="100%" height="100%" viewBox="0 0 20 20" version="1.1" xmlns="http://www.w3.org/2000/svg" xmlns:xlink="http://www.w3.org/1999/xlink">
    <title>icon-emoji-add</title>
    <g id="Messaging" stroke="none" stroke-width="1" fill="none" fill-rule="evenodd">
        <g id="Messages" transform="translate(-125.000000, -192.000000)" fill="#000000" fill-rule="nonzero">
            <path d="M133.695652,193.869565 C134.915836,193.869565 136.077308,194.120861 137.131139,194.574524 C136.703276,194.973468 136.410595,195.515748 136.328094,196.12478 C135.516582,195.791954 134.627503,195.608696 133.695652,195.608696 C129.853913,195.608696 126.73913,198.723478 126.73913,202.565217 C126.73913,206.406957 129.853913,209.521739 133.695652,209.521739 C137.537391,209.521739 140.652174,206.406957 140.652174,202.565217 C140.652174,202.20923 140.625429,201.859485 140.573839,201.517881 C140.866893,201.632587 141.186951,201.695652 141.521739,201.695652 C141.80517,201.695652 142.078044,201.650451 142.333545,201.566865 C142.372024,201.893761 142.391304,202.227237 142.391304,202.565217 C142.391304,207.367826 138.498261,211.26087 133.695652,211.26087 C128.893043,211.26087 125,207.367826 125,202.565217 C125,197.762609 128.893043,193.869565 133.695652,193.869565 Z M138.138587,204.304348 C137.442935,206.078261 135.721739,207.347826 133.695652,207.347826 C131.744605,207.347826 130.076284,206.170561 129.334196,204.499335 L129.252717,204.304348 L138.138587,204.304348 Z M130.652174,199.086957 C131.372545,199.086957 131.956522,199.670933 131.956522,200.391304 C131.956522,201.111676 131.372545,201.695652 130.652174,201.695652 C129.931803,201.695652 129.347826,201.111676 129.347826,200.391304 C129.347826,199.670933 129.931803,199.086957 130.652174,199.086957 Z M136.73913,199.086957 C137.459502,199.086957 138.043478,199.670933 138.043478,200.391304 C138.043478,201.111676 137.459502,201.695652 136.73913,201.695652 C136.018759,201.695652 135.434783,201.111676 135.434783,200.391304 C135.434783,199.670933 136.018759,199.086957 136.73913,199.086957 Z M141.521739,193 C142.001987,193 142.391304,193.389318 142.391304,193.869565 L142.390478,195.608 L144.130435,195.608696 C144.610682,195.608696 145,195.998013 145,196.478261 C145,196.958508 144.610682,197.347826 144.130435,197.347826 L142.390478,197.347 L142.391304,199.086957 C142.391304,199.382494 142.24387,199.643595 142.01854,199.800725 L141.955587,199.839547 L141.955587,199.839547 C141.929778,199.855511 141.905705,199.867848 141.881015,199.879065 L141.955587,199.839547 C141.920488,199.860158 141.883776,199.878302 141.845687,199.893769 C141.832,199.899667 141.818507,199.904694 141.804861,199.909391 C141.750574,199.92801 141.693472,199.941609 141.634492,199.949266 C141.633537,199.949403 141.632177,199.949576 141.630816,199.949747 L141.521739,199.956522 L141.521739,199.956522 C141.041492,199.956522 140.652174,199.567204 140.652174,199.086957 L140.652,198.246 L140.651478,197.347 L138.913043,197.347826 C138.432796,197.347826 138.043478,196.958508 138.043478,196.478261 C138.043478,195.998013 138.432796,195.608696 138.913043,195.608696 L140.651478,195.608 L140.652174,193.869565 C140.652174,193.389318 141.041492,193 141.521739,193 Z" id="Combined-Shape"></path>
        </g>
    </g>
</svg>