<svg xmlns="http://www.w3.org/2000/svg" width="100%" height="100%" viewBox="0 0 32 32">
  <path fill-rule="evenodd" d="M125,275 C126.104569,275 127,275.895431 127,277 C127,278.104569 126.104569,279 125,279 C123.895431,279 123,278.104569 123,277 C123,275.895431 123.895431,275 125,275 Z M125,268 C126.104569,268 127,268.895431 127,270 C127,271.104569 126.104569,272 125,272 C123.895431,272 123,271.104569 123,270 C123,268.895431 123.895431,268 125,268 Z M125,261 C126.104569,261 127,261.895431 127,263 C127,264.104569 126.104569,265 125,265 C123.895431,265 123,264.104569 123,263 C123,261.895431 123.895431,261 125,261 Z" transform="translate(-109 -254)"/>
</svg>
