<?xml version="1.0" encoding="UTF-8"?>
<svg width="100%" height="100%" viewBox="0 0 20 20" fill="#000" version="1.1" xmlns="http://www.w3.org/2000/svg" xmlns:xlink="http://www.w3.org/1999/xlink">
    <!-- Generator: Sketch 59.1 (86144) - https://sketch.com -->
    <title>icon-copy</title>
    <desc>Created with Sketch.</desc>
    <g id="Messaging" stroke="none" stroke-width="1"  fill-rule="evenodd">
        <g id="Messages" transform="translate(-291.000000, -169.000000)" >
            <path d="M294.571429,170 C293.707143,170 293,170.73125 293,171.625 L293,181.990545 C293,182.548051 293.443865,183 294,183 L294,183 C294.552285,183 295,182.555163 295,182.004423 L295,172 L303.002455,172 C303.553384,172 304,171.556135 304,171 L304,171 C304,170.447715 303.54524,170 302.990978,170 L294.571429,170 Z M297.6,173 C296.72,173 296,173.75 296,174.666667 L296,186.333333 C296,187.25 296.72,188 297.6,188 L306.4,188 C307.28,188 308,187.25 308,186.333333 L308,174.666667 C308,173.75 307.28,173 306.4,173 L297.6,173 Z M298,186 L298,175 L306,175 L306,186 L298,186 Z" id="Shape"></path>
        </g>
    </g>
</svg>