<svg xmlns="http://www.w3.org/2000/svg" width="100%" height="100%" viewBox="0 0 32 32">
  <path fill-rule="evenodd" d="M92.9975383,275 C93.5605417,275 94,275.447715 94,276 L94,276 L93.9932557,276.117333 C93.9353484,276.61728 93.5116366,277 92.9975383,277 L92.9975383,277 L73.0024617,277 C72.4394583,277 72,276.552285 72,276 L72,276 L72.0067443,275.882667 C72.0646516,275.38272 72.4883634,275 73.0024617,275 L73.0024617,275 Z M92.9975383,269 C93.5605417,269 94,269.447715 94,270 L94,270 L93.9932557,270.117333 C93.9353484,270.61728 93.5116366,271 92.9975383,271 L92.9975383,271 L73.0024617,271 C72.4394583,271 72,270.552285 72,270 L72,270 L72.0067443,269.882667 C72.0646516,269.38272 72.4883634,269 73.0024617,269 L73.0024617,269 Z M92.9975383,263 C93.5605417,263 94,263.447715 94,264 L94,264 L93.9932557,264.117333 C93.9353484,264.61728 93.5116366,265 92.9975383,265 L92.9975383,265 L73.0024617,265 C72.4394583,265 72,264.552285 72,264 L72,264 L72.0067443,263.882667 C72.0646516,263.38272 72.4883634,263 73.0024617,263 L73.0024617,263 Z" transform="translate(-67 -254)"/>
</svg>
