<?xml version="1.0" encoding="UTF-8"?>
<svg width="100%" height="100%" viewBox="0 0 20 20" version="1.1" xmlns="http://www.w3.org/2000/svg" xmlns:xlink="http://www.w3.org/1999/xlink">
    <title>icon-notifications-off</title>
    <g id="Messaging" stroke="none" stroke-width="1" fill="none" fill-rule="evenodd">
        <g transform="translate(-97.000000, -192.000000)" fill="#000000" fill-rule="nonzero" id="Combined-Shape">
            <path d="M100.414214,193.414214 L116.67767,209.67767 L115.263456,211.091883 L113.172,209 L108.728516,209 C108.905288,209.303696 108.998926,209.648605 109,210 C109,211.104569 108.104569,212 107,212 C105.895431,212 105,211.104569 105,210 C105.000401,209.707319 105.065023,209.419027 105.188457,209.1552 L105.269531,209 L99,209 L99,208 L101,206 L101,200 C101,199.073134 101.210361,198.196022 101.585888,197.413269 L99,194.828427 L100.414214,193.414214 Z M103.006802,199.765282 L103,200 L103,206.828125 L102.828125,207 L111.171875,207 L111,206.828125 L103.135678,198.965044 C103.066676,199.222547 103.022786,199.490225 103.006802,199.765282 Z M107,192 C107.779294,192 108.420401,192.595266 108.493129,193.355607 L108.5,193.5 L108.5,194.195312 C111.008428,194.841889 112.883431,197.064357 112.994764,199.747172 L113,200 L113,203.172 L111,201.172 L111,200 C111,197.860848 109.31308,196.109106 107.199372,196.004904 L107,196 C106.641909,196 106.294674,196.047271 105.964206,196.135903 L104.417382,194.589069 C104.67543,194.465901 104.943649,194.360573 105.220427,194.274675 L105.5,194.195312 L105.5,193.5 C105.5,192.672 106.172,192 107,192 Z"></path>
        </g>
    </g>
</svg>