<?xml version="1.0" encoding="UTF-8"?>
<svg width="100%" height="100%" fill="#000" viewBox="0 0 20 20" version="1.1" xmlns="http://www.w3.org/2000/svg" xmlns:xlink="http://www.w3.org/1999/xlink">
    <g id="Page-1" stroke="none" stroke-width="1" fill-rule="evenodd">
        <g id="Artboard"  fill-rule="nonzero">
            <g id="icon-image" transform="translate(1, 2)">
                <path d="M7.07442545,6.70648564 C7.47430076,6.39981856 8.03988806,6.43860495 8.39415602,6.79698907 L8.39415602,6.79698907 L11.4434397,9.88170171 L13.3996631,8.41324624 C13.75949,8.14313913 14.2553989,8.14659542 14.611426,8.42169177 L14.611426,8.42169177 L17.1899621,10.4140849 C17.626986,10.7517661 17.7075191,11.3797886 17.3698378,11.8168125 C17.0321566,12.2538363 16.4041341,12.3343694 15.9671102,11.9966882 L15.9671102,11.9966882 L13.9912394,10.4699648 L11.9461429,12.0051337 C11.5462651,12.3053053 10.986136,12.2639906 10.6346269,11.9083974 L10.6346269,11.9083974 L7.59175739,8.83017356 L2.12623245,13.0217216 C1.68798657,13.3578153 1.06026029,13.2750046 0.724166562,12.8367588 C0.388072834,12.3985129 0.470883514,11.7707866 0.909129393,11.4346929 L0.909129393,11.4346929 L7.07442545,6.70648564 Z M12.5,4 C13.328,4 14,4.672 14,5.5 C14,6.328 13.328,7 12.5,7 C11.672,7 11,6.328 11,5.5 C11,4.672 11.672,4 12.5,4 Z" id="Shape"></path>
                <path d="M16.3,-1 L1.7,-1 C0.761115925,-1 0,-0.238884075 0,0.7 L0,15.3 C0,16.2388841 0.761115925,17 1.7,17 L16.3,17 C17.2388841,17 18,16.2388841 18,15.3 L18,0.7 C18,-0.238884075 17.2388841,-1 16.3,-1 Z M16,1 L16,15 L2,15 L2,1 L16,1 Z" id="Rectangle"></path>
            </g>
        </g>
    </g>
</svg>