<svg xmlns="http://www.w3.org/2000/svg" width="100%" height="100%" viewBox="0 0 36 44">
  <path d="M231.343146,308 C232.934445,308 234.460568,308.632141 235.585786,309.757359 L235.585786,309.757359 L245.242641,319.414214 C246.367859,320.539432 247,322.065555 247,323.656854 L247,323.656854 L247,344 C247,348.418278 243.418278,352 239,352 L239,352 L219,352 C214.581722,352 211,348.418278 211,344 L211,344 L211,316 C211,311.581722 214.581722,308 219,308 L219,308 Z M231.343146,310 L219,310 C215.686292,310 213,312.686292 213,316 L213,316 L213,344 C213,347.313708 215.686292,350 219,350 L219,350 L239,350 C242.313708,350 245,347.313708 245,344 L245,344 L245,323.656854 C245,322.595988 244.578573,321.578573 243.828427,320.828427 L243.828427,320.828427 L234.171573,311.171573 C233.421427,310.421427 232.404012,310 231.343146,310 L231.343146,310 Z M236,338 C236.552285,338 237,338.447715 237,339 C237,339.552285 236.552285,340 236,340 L222,340 C221.447715,340 221,339.552285 221,339 C221,338.447715 221.447715,338 222,338 L236,338 Z M236,333 C236.552285,333 237,333.447715 237,334 C237,334.552285 236.552285,335 236,335 L222,335 C221.447715,335 221,334.552285 221,334 C221,333.447715 221.447715,333 222,333 L236,333 Z M236,328 C236.552285,328 237,328.447715 237,329 C237,329.552285 236.552285,330 236,330 L222,330 C221.447715,330 221,329.552285 221,329 C221,328.447715 221.447715,328 222,328 L236,328 Z M236,323 C236.552285,323 237,323.447715 237,324 C237,324.552285 236.552285,325 236,325 L222,325 C221.447715,325 221,324.552285 221,324 C221,323.447715 221.447715,323 222,323 L236,323 Z" transform="translate(-211 -308)"/>
</svg>
