<svg xmlns="http://www.w3.org/2000/svg" width="100%" height="100%" viewBox="0 0 10 10">
  <path d="M101,221 L101,224 L101,224 L98,224 C97.4477153,224 97,224.447715 97,225 C97,225.552285 97.4477153,226 98,226 L101,226 L101,226 L101,229 C101,229.552285 101.447715,230 102,230 C102.552285,230 103,229.552285 103,229 L103,226 L103,226 L106,226 C106.552285,226 107,225.552285 107,225 C107,224.447715 106.552285,224 106,224 L103,224 L103,224 L103,221 C103,220.447715 102.552285,220 102,220 C101.447715,220 101,220.447715 101,221 Z" transform="translate(-97 -220)"/>
</svg>
