<svg id="Layer_1" data-name="Layer 1" xmlns="http://www.w3.org/2000/svg" viewBox="0 0 18 16"><path class="cls-1" d="M15.1.49a5.17,5.17,0,0,1,2.42,6.83,18.71,18.71,0,0,1-3.25,4l-.73.74c-.86.86-1.79,1.75-2.71,2.61l-.9.82-.34.31a.86.86,0,0,1-1.18,0l-.34-.31-.9-.82c-.92-.86-1.85-1.75-2.71-2.61l-.73-.74a18.39,18.39,0,0,1-3.25-4A5.17,5.17,0,0,1,2.9.49,5,5,0,0,1,9,1.92,5,5,0,0,1,15.1.49ZM9.62,13.3c.91-.85,1.82-1.72,2.67-2.56L13,10a18.44,18.44,0,0,0,2.9-3.47,3.34,3.34,0,0,0-1.56-4.42A3.26,3.26,0,0,0,10,3.72a3,3,0,0,0-.11.37.89.89,0,0,1-1.74,0A1.71,1.71,0,0,0,8,3.72,3.25,3.25,0,0,0,3.66,2.13,3.34,3.34,0,0,0,2.1,6.55,18.44,18.44,0,0,0,5,10l.71.72c.85.84,1.76,1.71,2.67,2.56l.62.58Z"/></svg>