<svg xmlns="http://www.w3.org/2000/svg" width="100%" height="100%" viewBox="0 0 20 20">
  <path d="M301,137 C298.802706,137 297,138.802706 297,141 C297,143.197294 298.802706,145 301,145 C303.197294,145 305,143.197294 305,141 C305,138.802706 303.197294,137 301,137 Z M301,139 C302.116414,139 303,139.883586 303,141 C303,142.116414 302.116414,143 301,143 C299.883586,143 299,142.116414 299,141 C299,139.883586 299.883586,139 301,139 Z M301,147 C299.255047,147 297.187164,147.409783 295.449219,148.095703 C294.580246,148.438663 293.794696,148.84605 293.166016,149.369141 C292.537335,149.892231 292,150.599384 292,151.5 L292,154 L310,154 L310,153 L310,151.5 C310,150.599384 309.462665,149.892231 308.833984,149.369141 C308.205304,148.84605 307.419754,148.438663 306.550781,148.095703 C304.812836,147.409783 302.744953,147 301,147 Z M301,149 C302.414047,149 304.346055,149.373999 305.818359,149.955078 C306.554512,150.245618 307.176961,150.591965 307.554688,150.90625 C307.932412,151.220535 308,151.434616 308,151.5 L308,152 L294,152 L294,151.5 C294,151.434616 294.067587,151.220535 294.445312,150.90625 C294.823038,150.591965 295.445488,150.245618 296.181641,149.955078 C297.653946,149.373999 299.585953,149 301,149 Z" transform="translate(-291 -136)"/>
</svg>
