<?xml version="1.0" encoding="UTF-8"?>
<svg width="100%" height="100%" fill="#000" viewBox="0 0 20 20" version="1.1" xmlns="http://www.w3.org/2000/svg" xmlns:xlink="http://www.w3.org/1999/xlink">
    <g id="Page-1" stroke="none" stroke-width="1" fill-rule="evenodd">
        <g id="icon-gif" transform="translate(2.000000, 2.000000)" fill-rule="nonzero">
            <path d="M15.3,-1 L0.7,-1 C-0.238884075,-1 -1,-0.238884075 -1,0.7 L-1,15.3 C-1,16.2388841 -0.238884075,17 0.7,17 L15.3,17 C16.2388841,17 17,16.2388841 17,15.3 L17,0.7 C17,-0.238884075 16.2388841,-1 15.3,-1 Z M15,1 L15,15 L1,15 L1,1 L15,1 Z" id="Rectangle"></path>
            <path d="M5.081925,11 C3.658648,11 2.5,10.036232 2.5,8.5 C2.5,6.963768 3.658648,6 5.081925,6 C6.147594,6 6.791287,6.572464 7.120286,7.173913 L6.090377,7.717391 C5.911573,7.398551 5.546814,7.101449 5.081925,7.101449 C4.302341,7.101449 3.751625,7.710145 3.751625,8.5 C3.751625,9.289855 4.302341,9.898551 5.081925,9.898551 C5.43238,9.898551 5.789987,9.753623 5.961638,9.608696 L5.961638,9.231884 L4.888817,9.231884 L4.888817,8.137681 L7.191808,8.137681 L7.191808,10.057971 C6.676853,10.630435 5.983095,11 5.081925,11 Z M9.144343,10.913043 L7.914174,10.913043 L7.914174,6.07971 L9.144343,6.07971 L9.144343,10.913043 Z M11.23277,10.913043 L10.002601,10.913043 L10.002601,6.07971 L13.5,6.07971 L13.5,7.166667 L11.23277,7.166667 L11.23277,7.92029 L13.449935,7.92029 L13.449935,9.007246 L11.23277,9.007246 L11.23277,10.913043 Z" id="Shape"></path>
        </g>
    </g>
</svg>