<?xml version="1.0" encoding="UTF-8"?>
<svg width="100%" height="100%" viewBox="0 0 20 20" version="1.1" xmlns="http://www.w3.org/2000/svg" xmlns:xlink="http://www.w3.org/1999/xlink">
    <g id="Messaging" stroke="none" stroke-width="1" fill-rule="evenodd">
        <g transform="translate(-181.000000, -113.000000)" fill-rule="nonzero" id="icons8-attach">
            <g transform="translate(191.500000, 123.000000) rotate(-315.000000) translate(-191.500000, -123.000000) translate(186.000000, 113.000000)">
                <path d="M4,0 C1.8026661,0 0,1.8026661 0,4 L0,14.5 C0,17.525577 2.4744232,20 5.5,20 C8.525577,20 11,17.525577 11,14.5 L11,6 C11,5.44771525 10.5522847,5 10,5 C9.44771525,5 9,5.44771525 9,6 L9,14.5 L9,14.5 C9,16.444423 7.444423,18 5.5,18 C3.555577,18 2,16.444423 2,14.5 L2,4 C2,2.8833339 2.8833339,2 4,2 C5.116666,2 6,2.8833339 6,4 L6,14.5 C6,14.786937 5.786937,15 5.5,15 C5.213063,15 5,14.786937 5,14.5 L5,6 C5,5.44771525 4.55228475,5 4,5 C3.44771525,5 3,5.44771525 3,6 L3,14.5 L3,14.5 C3,15.869063 4.130937,17 5.5,17 C6.869063,17 8,15.869063 8,14.5 L8,4 C8,1.8026661 6.197334,0 4,0 Z" id="Path"></path>
            </g>
        </g>
    </g>
</svg>