<svg xmlns="http://www.w3.org/2000/svg" width="100%" height="100%" viewBox="0 0 36 44">
  <path fill="#222" d="M375.343146,308 C376.934445,308 378.460568,308.632141 379.585786,309.757359 L379.585786,309.757359 L389.242641,319.414214 C390.367859,320.539432 391,322.065555 391,323.656854 L391,323.656854 L391,344 C391,348.418278 387.418278,352 383,352 L383,352 L363,352 C358.581722,352 355,348.418278 355,344 L355,344 L355,316 C355,311.581722 358.581722,308 363,308 L363,308 Z M375.343146,310 L363,310 C359.686292,310 357,312.686292 357,316 L357,316 L357,344 C357,347.313708 359.686292,350 363,350 L363,350 L383,350 C386.313708,350 389,347.313708 389,344 L389,344 L389,323.656854 C389,322.595988 388.578573,321.578573 387.828427,320.828427 L387.828427,320.828427 L378.171573,311.171573 C377.421427,310.421427 376.404012,310 375.343146,310 L375.343146,310 Z M376,313 C376.552285,313 377,313.447715 377,314 L377,322 L385,322 C385.552285,322 386,322.447715 386,323 C386,323.552285 385.552285,324 385,324 L376,324 L376,324 C375.447715,324 375,323.552285 375,323 L375,314 C375,313.447715 375.447715,313 376,313 Z" transform="translate(-355 -308)"/>
</svg>
