<?xml version="1.0" encoding="UTF-8"?>
<svg width="100%" height="100%" viewBox="0 0 20 20" fill="#000" version="1.1" xmlns="http://www.w3.org/2000/svg" xmlns:xlink="http://www.w3.org/1999/xlink">
    <!-- Generator: Sketch 59.1 (86144) - https://sketch.com -->
    <title>icon-person-circle</title>
    <desc>Created with Sketch.</desc>
    <g id="Messaging" stroke="none" stroke-width="1"  fill-rule="evenodd">
        <g id="Messages" transform="translate(-209.000000, -164.000000)">
            <g id="kit-icons/user-account-round-head-outline" transform="translate(209.000000, 164.000000)">
                <g id="icons8-user_male_circle">
                    <path d="M10,0 C4.477,0 0,4.477 0,10 C0,15.523 4.477,20 10,20 C15.523,20 20,15.523 20,10 C20,4.477 15.523,0 10,0 Z M10,2 C14.418,2 18,5.582 18,10 C18,11.597292 17.525404,13.081108 16.71875,14.330078 L15.949219,13.734375 C14.397219,12.537375 11.537,12 10,12 C8.463,12 5.6017813,12.537375 4.0507812,13.734375 L3.28125,14.332031 C2.4740429,13.082774 2,11.597888 2,10 C2,5.582 5.582,2 10,2 Z M10,3.75 C8.208,3.75 6.75,5.208 6.75,7 C6.75,8.792 8.208,10.25 10,10.25 C11.792,10.25 13.25,8.792 13.25,7 C13.25,5.208 11.792,3.75 10,3.75 Z M10,5.75 C10.689,5.75 11.25,6.311 11.25,7 C11.25,7.689 10.689,8.25 10,8.25 C9.311,8.25 8.75,7.689 8.75,7 C8.75,6.311 9.311,5.75 10,5.75 Z M10,14 C13.100714,14 14.768095,15.168477 15.548828,15.753906 C14.109984,17.141834 12.156852,18 10,18 C7.843148,18 5.8900164,17.141834 4.4511719,15.753906 C5.231905,15.168477 6.899286,14 10,14 Z M4.0546875,15.339844 C4.1756559,15.473131 4.297271,15.605851 4.4257812,15.730469 C4.2971141,15.605286 4.1747276,15.473381 4.0546875,15.339844 Z M15.912109,15.375 C15.802435,15.495543 15.692936,15.616825 15.576172,15.730469 C15.692621,15.617521 15.801457,15.494978 15.912109,15.375 Z" id="Shape"></path>
                </g>
            </g>
        </g>
    </g>
</svg>