<?xml version="1.0" encoding="UTF-8"?>
<svg width="100%" height="100%" viewBox="0 0 20 20" version="1.1" xmlns="http://www.w3.org/2000/svg" xmlns:xlink="http://www.w3.org/1999/xlink">
    <!-- Generator: Sketch 59.1 (86144) - https://sketch.com -->
    <title>icon-calendar</title>
    <desc>Created with Sketch.</desc>
    <g id="Messaging" stroke="none" stroke-width="1" fill-rule="evenodd">
        <g id="Messages" transform="translate(-264.000000, -164.000000)">
            <g id="kit-icons/calendar" transform="translate(264.000000, 164.000000)">
                <path d="M7,9 L5,9 L5,11 L7,11 L7,9 Z M7,13 L5,13 L5,15 L7,15 L7,13 Z M11,13 L9,13 L9,15 L11,15 L11,13 Z M15,13 L13,13 L13,15 L15,15 L15,13 Z M11,9 L9,9 L9,11 L11,11 L11,9 Z M15,9 L13,9 L13,11 L15,11 L15,9 Z M17,3 L16,3 L16,1 L14,1 L14,3 L6,3 L6,1 L4,1 L4,3 L3,3 C1.89,3 1.01,3.9 1.01,5 L1,17 C1,18.1 1.89,19 3,19 L17,19 C18.1,19 19,18.1 19,17 L19,5 C19,3.9 18.1,3 17,3 Z M17,17 L3,17 L3,7 L17,7 L17,17 Z" id="Calendar"></path>
            </g>
        </g>
    </g>
</svg>