<svg xmlns="http://www.w3.org/2000/svg" width="100%" height="100%" viewBox="0 0 36 44">
  <path fill="#FA5560" d="M87.3431458,308 C88.9344447,308 90.4605682,308.632141 91.5857864,309.757359 L91.5857864,309.757359 L101.242641,319.414214 C102.367859,320.539432 103,322.065555 103,323.656854 L103,323.656854 L103,344 C103,348.418278 99.418278,352 95,352 L95,352 L75,352 C70.581722,352 67,348.418278 67,344 L67,344 L67,316 C67,311.581722 70.581722,308 75,308 L75,308 Z M87.3431458,310 L75,310 C71.6862915,310 69,312.686292 69,316 L69,316 L69,344 C69,347.313708 71.6862915,350 75,350 L75,350 L95,350 C98.3137085,350 101,347.313708 101,344 L101,344 L101,323.656854 C101,322.595988 100.578573,321.578573 99.8284271,320.828427 L99.8284271,320.828427 L90.1715729,311.171573 C89.4214274,310.421427 88.4040117,310 87.3431458,310 L87.3431458,310 Z M83.9048658,322 C84.309657,322 84.7426075,322.152021 85.0488409,322.427105 C85.3550734,322.702189 85.5310699,323.060522 85.6366671,323.415236 C85.8443427,324.124664 85.819703,324.899242 85.7035458,325.786028 C85.6190677,326.426684 85.2459565,327.277274 85.0558803,328.008418 C85.101639,328.091668 85.0945997,328.14958 85.1403584,328.232829 C85.9217814,329.601011 86.9742372,330.976432 88.0970923,331.971803 C88.1710104,332.036954 88.2414088,332.062291 88.3153278,332.120203 C88.8679552,332.015237 89.5332201,331.743772 90.0295288,331.689479 C90.969348,331.591752 91.7859697,331.577274 92.5040337,331.776348 C92.8665858,331.877694 93.2185779,332.036954 93.517771,332.337375 C93.8134444,332.637796 94,333.104715 94,333.542678 C94,334.081988 93.6832075,334.787796 93.1552189,335.080978 C92.6307509,335.37416 92.0922031,335.406735 91.3952583,335.406735 C90.1632863,335.406735 89.0369115,334.83485 87.9774154,334.100086 C86.7102437,334.382408 85.5029105,334.585102 84.1477411,335.0665 C83.1445628,335.421213 82.5180173,335.83746 81.6345168,336.239227 C81.3599634,336.691668 81.1382081,337.317847 80.8601341,337.705136 C80.3075067,338.468857 79.758399,339.095036 79.1424126,339.52214 C78.5264261,339.949244 77.6746056,340.198992 76.9354217,339.797224 C76.5869502,339.612628 76.2490377,339.326685 76.0871209,338.888723 C75.925205,338.450759 76.0096831,337.965743 76.171599,337.625506 C76.5024721,336.941416 77.0656595,336.510691 77.7766831,336.029294 C78.4102689,335.60219 79.4944047,335.232998 80.3532655,334.820372 C81.011491,333.672981 81.6978759,332.579883 82.2575427,331.200843 C82.6975335,330.118604 82.8383303,329.235439 83.1304831,328.221971 C82.542657,327.031146 82.0885864,325.869276 81.9689096,324.84133 C81.8914708,324.189815 81.9125908,323.563637 82.2223439,322.980893 C82.5285773,322.394528 83.2290409,322 83.9048658,322 Z M84.3765357,330.346634 C84.1829398,330.896803 84.1442205,331.363722 83.9189455,331.917509 C83.6725515,332.52559 83.3311193,332.963553 83.056565,333.553536 C83.2501609,333.481146 83.3627984,333.383418 83.559914,333.314648 C84.4891732,332.985271 85.3163549,332.894783 86.2385738,332.641415 C85.5486693,331.935607 84.9326828,331.168267 84.3765357,330.346634 Z M83.8309477,323.84596 C83.8203877,323.84596 83.8098286,323.84958 83.8027883,323.867677 C83.774629,323.914731 83.7077502,324.189815 83.7605493,324.620539 C83.7711093,324.718266 83.8943067,324.92096 83.9154258,325.029546 C83.9330252,324.602442 83.9611846,324.121044 83.9119061,323.950926 C83.8837467,323.860438 83.8767064,323.864058 83.8731867,323.856818 C83.8591071,323.853199 83.8415077,323.84596 83.8309477,323.84596 Z" transform="translate(-67 -308)"/>
</svg>
