<svg xmlns="http://www.w3.org/2000/svg" width="100%" height="100%" viewBox="0 0 20 20">
  <path d="M211.305628,138.305628 C211.713131,137.898124 212.373825,137.898124 212.781329,138.305628 L212.781329,138.305628 L219,144.524 L225.218671,138.305628 C225.594828,137.929471 226.186722,137.900535 226.596069,138.218822 L226.694372,138.305628 C227.101876,138.713131 227.101876,139.373825 226.694372,139.781329 L226.694372,139.781329 L220.476,146 L226.694372,152.218671 C227.070529,152.594828 227.099465,153.186722 226.781178,153.596069 L226.694372,153.694372 C226.286869,154.101876 225.626175,154.101876 225.218671,153.694372 L225.218671,153.694372 L219,147.476 L212.781329,153.694372 C212.405172,154.070529 211.813278,154.099465 211.403931,153.781178 L211.305628,153.694372 C210.898124,153.286869 210.898124,152.626175 211.305628,152.218671 L211.305628,152.218671 L217.524,146 L211.305628,139.781329 C210.929471,139.405172 210.900535,138.813278 211.218822,138.403931 Z" transform="translate(-209 -136)"/>
</svg>
