<?xml version="1.0" encoding="UTF-8"?>
<svg width="100%" height="100%" fill='#000' viewBox="0 0 20 20" version="1.1" xmlns="http://www.w3.org/2000/svg" xmlns:xlink="http://www.w3.org/1999/xlink">
    <!-- Generator: Sketch 59.1 (86144) - https://sketch.com -->
    <title>icon-download</title>
    <desc>Created with Sketch.</desc>
    <g id="Messaging" stroke="none" stroke-width="1" fill-rule="evenodd">
        <g id="Messages" transform="translate(-347.000000, -136.000000)" fill-rule="nonzero">
            <path d="M364,154 C364.552285,154 365,154.447715 365,155 C365,155.552285 364.552285,156 364,156 L350,156 C349.447715,156 349,155.552285 349,155 C349,154.447715 349.447715,154 350,154 L364,154 Z M357,137 C357.552285,137 358,137.447715 358,138 L358,138 L358,148.070312 L361.820312,144.25 C362.234526,143.835786 362.906098,143.835786 363.320312,144.25 C363.734526,144.664214 363.734526,145.335786 363.320312,145.75 L363.320312,145.75 L357.707107,151.363205 C357.316582,151.753729 356.683418,151.753729 356.292893,151.363205 L356.292893,151.363205 L350.679688,145.75 L350.679688,145.75 L350.591453,145.650078 C350.267925,145.23399 350.297337,144.632351 350.679687,144.25 C351.093901,143.835786 351.765474,143.835786 352.179688,144.25 L352.179688,144.25 L356,148.070312 L356,138 C356,137.447715 356.447715,137 357,137 Z" id="Combined-Shape"></path>
        </g>
    </g>
</svg>